<?xml version="1.0" encoding="utf-8"?>
<!-- Generator: Adobe Illustrator 19.0.0, SVG Export Plug-In . SVG Version: 6.00 Build 0)  -->
<svg version="1.1" id="Capa_1" xmlns="http://www.w3.org/2000/svg" xmlns:xlink="http://www.w3.org/1999/xlink" x="0px" y="0px"
	 viewBox="-49 141 512 512" style="enable-background:new -49 141 512 512;" xml:space="preserve">
<style type="text/css">
	.st0{fill:#FFFFFF;}
</style>
<path class="st0" d="M415,205H-1c-26.5,0-48,21.5-48,48v288c0,26.5,21.5,48,48,48h416c26.5,0,48-21.5,48-48V253
	C463,226.5,441.5,205,415,205z M415,237c2.2,0,4.2,0.5,6.1,1.2L207,423.8L-7.1,238.2c1.9-0.8,4-1.2,6.1-1.2L415,237z M415,557H-1
	c-8.8,0-16-7.2-16-16V272l213.5,185c3,2.6,6.8,3.9,10.5,3.9s7.5-1.3,10.5-3.9L431,272v269C431,549.8,423.8,557,415,557z"/>
</svg>
