<?xml version="1.0" encoding="utf-8"?>
<!-- Generator: Adobe Illustrator 19.0.0, SVG Export Plug-In . SVG Version: 6.00 Build 0)  -->
<svg version="1.1" id="logoMorek" xmlns="http://www.w3.org/2000/svg" xmlns:xlink="http://www.w3.org/1999/xlink" x="0px" y="0px"
	 viewBox="0 0 612 792" style="enable-background:new 0 0 612 792;" xml:space="preserve">
<style type="text/css">
	.st0{fill-rule:evenodd;clip-rule:evenodd;fill:#941829;}
	.st1{fill-rule:evenodd;clip-rule:evenodd;fill:#991A1D;}
	.st2{fill-rule:evenodd;clip-rule:evenodd;fill:#CA1F25;}
	.st3{fill-rule:evenodd;clip-rule:evenodd;fill:#8C1522;}
	.st4{display:none;fill-rule:evenodd;clip-rule:evenodd;fill:#941829;}
</style>
<g>
	<path class="st0" d="M408.6,285.7c40.8,20,68.9,62,68.9,110.5c0,48.5-28.1,90.5-68.9,110.5c31-22.4,51.8-63.5,51.8-110.5
		C460.4,349.3,439.6,308.2,408.6,285.7z"/>
	<path class="st1" d="M464.8,318.9c28.6,14,48.2,43.4,48.2,77.4c0,34-19.7,63.3-48.2,77.4c21.7-15.7,36.2-44.5,36.2-77.4
		C501.1,363.3,486.5,334.6,464.8,318.9z"/>
	<path class="st2" d="M514.6,352c16.3,8,27.6,24.8,27.6,44.2c0,19.4-11.2,36.2-27.6,44.2c12.4-9,20.7-25.4,20.7-44.2
		C535.3,377.4,527,361,514.6,352z"/>
	<path class="st0" d="M204.7,285.7c-40.8,20-68.9,62-68.9,110.5c0,48.5,28.1,90.5,68.9,110.5c-31-22.4-51.8-63.5-51.8-110.5
		C152.9,349.3,173.7,308.2,204.7,285.7z"/>
	<path class="st1" d="M148.5,318.9c-28.6,14-48.2,43.4-48.2,77.4c0,34,19.7,63.3,48.2,77.4c-21.7-15.7-36.2-44.5-36.2-77.4
		C112.2,363.3,126.8,334.6,148.5,318.9z"/>
	<path class="st2" d="M98.7,352c-16.3,8-27.6,24.8-27.6,44.2c0,19.4,11.2,36.2,27.6,44.2C86.3,431.5,78,415,78,396.2
		C78,377.4,86.3,361,98.7,352z"/>
</g>
<circle class="st3" cx="306.6" cy="529.4" r="18.8"/>
<g id="XMLID_1_">
	<path id="XMLID_4_" d="M232.1,480c-0.9-0.9-1.3-2-1.3-3.2v-169c0-1.2,0.4-2.3,1.3-3.2c0.8-0.9,1.9-1.4,3.1-1.4h25
		c1.7,0,3,0.9,3.8,2.5l38.7,64.2c0.2,0.3,0.6,0.9,1.4,1.5c0.8,0.7,1.7,1,2.9,1h0.5c1.2,0,2.1-0.4,2.7-1.1c0.6-0.8,1-1.3,1.1-1.7
		l38.5-63.7c1.2-1.9,2.5-2.8,4.1-2.8h25.2c1.2,0,2.2,0.5,3.1,1.4c0.8,0.9,1.3,2,1.3,3.2v169c0,1.2-0.4,2.3-1.3,3.2
		c-0.9,0.9-1.9,1.4-3.1,1.4h-25c-1.4,0-2.5-0.4-3.3-1.3c-0.9-0.8-1.3-2-1.3-3.3V375.6c0-1.7-0.3-2.5-1-2.5c-0.7,0-1.4,0.7-2.3,2
		l-26.8,38c-1.5,2.2-2.8,3.7-4,4.3c-1.1,0.7-3,1-5.7,1h-4.3c-3.2,0-5.4-0.3-6.6-0.8c-1.2-0.5-2.4-1.6-3.6-3.3l-27.5-39
		c-1-1.5-1.8-2.3-2.3-2.3c-0.7,0-1,0.8-1,2.3v101.4c0,1.2-0.4,2.3-1.3,3.2c-0.9,0.9-2,1.4-3.3,1.4h-24.7
		C234,481.4,233,481,232.1,480z"/>
</g>
<path id="XMLID_3_" class="st4" d="M204.7,385.2c6.5-7.9,13.2-14.4,20.1-19.5c12.5-9.3,25.3-13.8,38.4-13.7
	c13.2,0.2,25.9,5.2,37.8,15c1.3,1,2.5,2.1,3.8,3.3v-0.1c4.2,3.7,8.1,7.8,11.3,12.1c4.1,5.4,8.2,9.9,12.4,13.4
	c6.3,5.2,12.4,7.8,18.2,7.9c6,0.1,12.5-2.4,19.4-7.6c4.7-3.5,9.6-8.3,14.6-14.4l12,10l12.1,10c-6.5,7.9-13.2,14.4-20.1,19.5
	c-12.5,9.3-25.3,13.8-38.4,13.7c-13.2-0.2-25.9-5.2-37.8-15c-1.3-1-2.5-2.1-3.8-3.3v0.1c-4.2-3.7-8.1-7.8-11.3-12.1
	c-4.1-5.4-8.2-9.9-12.4-13.4c-6.3-5.2-12.4-7.8-18.2-7.9c-6-0.1-12.5,2.4-19.4,7.6c-4.7,3.5-9.6,8.3-14.6,14.4l-12-10L204.7,385.2z"
	/>
<g id="XMLID_2_">
</g>
<g id="XMLID_6_">
</g>
<g id="XMLID_7_">
</g>
<g id="XMLID_8_">
</g>
<g id="XMLID_9_">
</g>
<g id="XMLID_10_">
</g>
</svg>
